<?xml version="1.0" encoding="UTF-8" standalone="no"?>
<!DOCTYPE svg PUBLIC "-//W3C//DTD SVG 1.1//EN" "http://www.w3.org/Graphics/SVG/1.1/DTD/svg11.dtd">
<svg width="100%" height="100%" viewBox="0 0 720 720" version="1.1" xmlns="http://www.w3.org/2000/svg" xmlns:xlink="http://www.w3.org/1999/xlink" xml:space="preserve" xmlns:serif="http://www.serif.com/" style="fill-rule:evenodd;clip-rule:evenodd;">
    <g transform="matrix(1,0,0,1,-2380.31,0)">
        <g id="Artboard1" transform="matrix(1,0,0,1,2380.31,0)">
            <rect x="0" y="0" width="720" height="720" style="fill:none;"/>
            <g id="Layer-1" serif:id="Layer 1">
            </g>
            <g id="Layer-2" serif:id="Layer 2">
            </g>
            <g id="Layer-11" serif:id="Layer 1">
            </g>
            <g id="Layer-12" serif:id="Layer 1" transform="matrix(1.21202,0,0,1.21202,-0.605646,117.557)">
                <g transform="matrix(0.969838,0,0,0.969838,419.329,69.9961)">
                    <path d="M0,268.53L-341.16,268.53C-342.285,268.53 -343.197,267.618 -343.197,266.493L-343.197,2.037C-343.197,0.912 -342.285,0 -341.16,0L0,0C1.125,0 2.037,0.912 2.037,2.037L2.037,266.493C2.037,267.618 1.125,268.53 0,268.53Z" style="fill:white;fill-rule:nonzero;stroke:rgb(4,14,44);stroke-width:0.85px;"/>
                </g>
                <g transform="matrix(0.969838,0,0,0.969838,243.271,211.298)">
                    <path d="M0,93.64L-131.996,93.64C-135.553,93.64 -138.436,90.756 -138.436,87.2L-138.436,6.441C-138.436,2.884 -135.553,0 -131.996,0L0,0C3.557,0 6.44,2.884 6.44,6.441L6.44,87.2C6.44,90.756 3.557,93.64 0,93.64Z" style="fill:rgb(255,250,229);fill-rule:nonzero;stroke:rgb(16,22,47);stroke-width:0.85px;"/>
                </g>
                <g transform="matrix(0.969838,0,0,0.969838,171.182,226.931)">
                    <path d="M0,10.601L-51.296,10.601C-52.186,10.601 -52.907,9.88 -52.907,8.99L-52.907,1.611C-52.907,0.721 -52.186,0 -51.296,0L0,0C0.89,0 1.611,0.721 1.611,1.611L1.611,8.99C1.611,9.88 0.89,10.601 0,10.601" style="fill:rgb(25,28,49);fill-rule:nonzero;"/>
                </g>
                <g transform="matrix(0.969838,0,0,0.969838,121.013,247.484)">
                    <path d="M0,0L73.616,0" style="fill:none;fill-rule:nonzero;stroke:rgb(14,22,49);stroke-width:0.85px;stroke-linejoin:round;stroke-miterlimit:10;"/>
                </g>
                <g transform="matrix(0.969838,0,0,0.969838,121.013,257.908)">
                    <path d="M0,0L73.616,0" style="fill:none;fill-rule:nonzero;stroke:rgb(14,22,49);stroke-width:0.85px;stroke-linejoin:round;stroke-miterlimit:10;"/>
                </g>
                <g transform="matrix(0.969838,0,0,0.969838,121.013,268.332)">
                    <path d="M0,0L73.616,0" style="fill:none;fill-rule:nonzero;stroke:rgb(14,22,49);stroke-width:0.85px;stroke-linejoin:round;stroke-miterlimit:10;"/>
                </g>
                <g transform="matrix(0.969838,0,0,0.969838,121.013,278.756)">
                    <path d="M0,0L60.055,0" style="fill:none;fill-rule:nonzero;stroke:rgb(14,22,49);stroke-width:0.85px;stroke-linejoin:round;stroke-miterlimit:10;"/>
                </g>
                <g transform="matrix(0.969838,0,0,0.969838,265.518,302.113)">
                    <path d="M0,-93.64L-60.954,-93.64L-60.954,0L0,0C3.15,0 5.703,-2.553 5.703,-5.703L5.703,-87.937C5.703,-91.086 3.15,-93.64 0,-93.64Z" style="fill:rgb(255,250,229);fill-rule:nonzero;stroke:rgb(14,22,49);stroke-width:0.85px;stroke-linejoin:round;stroke-miterlimit:10;"/>
                </g>
                <g transform="matrix(0.969838,0,0,0.969838,255.703,226.589)">
                    <path d="M0,9.03L-35.999,9.03C-38.493,9.03 -40.514,7.009 -40.514,4.515C-40.514,2.021 -38.493,0 -35.999,0L0,0C2.494,0 4.515,2.021 4.515,4.515C4.515,7.009 2.494,9.03 0,9.03Z" style="fill:rgb(255,211,0);fill-rule:nonzero;stroke:rgb(4,14,44);stroke-width:0.85px;stroke-linejoin:round;"/>
                </g>
                <g transform="matrix(0.969838,0,0,0.969838,255.703,242.868)">
                    <path d="M0,9.03L-35.999,9.03C-38.493,9.03 -40.514,7.009 -40.514,4.515C-40.514,2.021 -38.493,0 -35.999,0L0,0C2.494,0 4.515,2.021 4.515,4.515C4.515,7.009 2.494,9.03 0,9.03Z" style="fill:rgb(255,211,0);fill-rule:nonzero;stroke:rgb(4,14,44);stroke-width:0.85px;stroke-linejoin:round;"/>
                </g>
                <g transform="matrix(0.969838,0,0,0.969838,255.703,258.289)">
                    <path d="M0,9.03L-35.999,9.03C-38.493,9.03 -40.514,7.009 -40.514,4.515C-40.514,2.021 -38.493,0 -35.999,0L0,0C2.494,0 4.515,2.021 4.515,4.515C4.515,7.009 2.494,9.03 0,9.03Z" style="fill:rgb(255,211,0);fill-rule:nonzero;stroke:rgb(4,14,44);stroke-width:0.85px;stroke-linejoin:round;"/>
                </g>
                <g transform="matrix(0.969838,0,0,0.969838,243.271,97.207)">
                    <path d="M0,93.64L-131.996,93.64C-135.553,93.64 -138.436,90.756 -138.436,87.199L-138.436,6.441C-138.436,2.884 -135.553,0 -131.996,0L0,0C3.557,0 6.44,2.884 6.44,6.441L6.44,87.199C6.44,90.756 3.557,93.64 0,93.64Z" style="fill:rgb(255,250,229);fill-rule:nonzero;stroke:rgb(16,22,47);stroke-width:0.85px;"/>
                </g>
                <g transform="matrix(0.969838,0,0,0.969838,171.182,112.84)">
                    <path d="M0,10.601L-51.296,10.601C-52.186,10.601 -52.907,9.88 -52.907,8.99L-52.907,1.611C-52.907,0.721 -52.186,0 -51.296,0L0,0C0.89,0 1.611,0.721 1.611,1.611L1.611,8.99C1.611,9.88 0.89,10.601 0,10.601" style="fill:rgb(25,28,49);fill-rule:nonzero;"/>
                </g>
                <g transform="matrix(0.969838,0,0,0.969838,121.013,133.394)">
                    <path d="M0,0L73.616,0" style="fill:none;fill-rule:nonzero;stroke:rgb(14,22,49);stroke-width:0.85px;stroke-linejoin:round;stroke-miterlimit:10;"/>
                </g>
                <g transform="matrix(0.969838,0,0,0.969838,121.013,143.817)">
                    <path d="M0,0L73.616,0" style="fill:none;fill-rule:nonzero;stroke:rgb(14,22,49);stroke-width:0.85px;stroke-linejoin:round;stroke-miterlimit:10;"/>
                </g>
                <g transform="matrix(0.969838,0,0,0.969838,121.013,154.241)">
                    <path d="M0,0L73.616,0" style="fill:none;fill-rule:nonzero;stroke:rgb(14,22,49);stroke-width:0.85px;stroke-linejoin:round;stroke-miterlimit:10;"/>
                </g>
                <g transform="matrix(0.969838,0,0,0.969838,121.013,164.665)">
                    <path d="M0,0L73.616,0" style="fill:none;fill-rule:nonzero;stroke:rgb(14,22,49);stroke-width:0.85px;stroke-linejoin:round;stroke-miterlimit:10;"/>
                </g>
                <g transform="matrix(0.969838,0,0,0.969838,121.013,175.089)">
                    <path d="M0,0L62.272,0" style="fill:none;fill-rule:nonzero;stroke:rgb(14,22,49);stroke-width:0.85px;stroke-linejoin:round;stroke-miterlimit:10;"/>
                </g>
                <g transform="matrix(0.969838,0,0,0.969838,265.518,188.023)">
                    <path d="M0,-93.64L-60.954,-93.64L-60.954,0L0,0C3.15,0 5.703,-2.553 5.703,-5.703L5.703,-87.937C5.703,-91.086 3.15,-93.64 0,-93.64Z" style="fill:rgb(255,250,229);fill-rule:nonzero;stroke:rgb(14,22,49);stroke-width:0.85px;stroke-linejoin:round;stroke-miterlimit:10;"/>
                </g>
                <g transform="matrix(0.969838,0,0,0.969838,256.133,112.499)">
                    <path d="M0,9.03L-35.999,9.03C-38.493,9.03 -40.514,7.008 -40.514,4.515C-40.514,2.021 -38.493,0 -35.999,0L0,0C2.494,0 4.515,2.021 4.515,4.515C4.515,7.008 2.494,9.03 0,9.03Z" style="fill:rgb(255,211,0);fill-rule:nonzero;stroke:rgb(4,14,44);stroke-width:0.85px;stroke-linejoin:round;"/>
                </g>
                <g transform="matrix(0.969838,0,0,0.969838,256.133,128.777)">
                    <path d="M0,9.03L-35.999,9.03C-38.493,9.03 -40.514,7.009 -40.514,4.515C-40.514,2.021 -38.493,0 -35.999,0L0,0C2.494,0 4.515,2.021 4.515,4.515C4.515,7.009 2.494,9.03 0,9.03Z" style="fill:rgb(255,211,0);fill-rule:nonzero;stroke:rgb(4,14,44);stroke-width:0.85px;stroke-linejoin:round;"/>
                </g>
                <g transform="matrix(0.969838,0,0,0.969838,256.133,144.199)">
                    <path d="M0,9.03L-35.999,9.03C-38.493,9.03 -40.514,7.009 -40.514,4.515C-40.514,2.021 -38.493,0 -35.999,0L0,0C2.494,0 4.515,2.021 4.515,4.515C4.515,7.009 2.494,9.03 0,9.03Z" style="fill:rgb(255,211,0);fill-rule:nonzero;stroke:rgb(4,14,44);stroke-width:0.85px;stroke-linejoin:round;"/>
                </g>
                <g transform="matrix(0.969838,0,0,0.969838,422.264,211.298)">
                    <path d="M0,93.64L-131.996,93.64C-135.553,93.64 -138.436,90.756 -138.436,87.2L-138.436,6.441C-138.436,2.884 -135.553,0 -131.996,0L0,0C3.557,0 6.441,2.884 6.441,6.441L6.441,87.2C6.441,90.756 3.557,93.64 0,93.64Z" style="fill:rgb(255,250,229);fill-rule:nonzero;stroke:rgb(16,22,47);stroke-width:0.85px;"/>
                </g>
                <g transform="matrix(0.969838,0,0,0.969838,350.175,226.931)">
                    <path d="M0,10.601L-51.296,10.601C-52.186,10.601 -52.907,9.88 -52.907,8.99L-52.907,1.611C-52.907,0.721 -52.186,0 -51.296,0L0,0C0.889,0 1.611,0.721 1.611,1.611L1.611,8.99C1.611,9.88 0.889,10.601 0,10.601" style="fill:rgb(25,28,49);fill-rule:nonzero;"/>
                </g>
                <g transform="matrix(0.969838,0,0,0.969838,300.007,247.484)">
                    <path d="M0,0L73.616,0" style="fill:none;fill-rule:nonzero;stroke:rgb(14,22,49);stroke-width:0.85px;stroke-linejoin:round;stroke-miterlimit:10;"/>
                </g>
                <g transform="matrix(0.969838,0,0,0.969838,300.007,257.908)">
                    <path d="M0,0L73.616,0" style="fill:none;fill-rule:nonzero;stroke:rgb(14,22,49);stroke-width:0.85px;stroke-linejoin:round;stroke-miterlimit:10;"/>
                </g>
                <g transform="matrix(0.969838,0,0,0.969838,300.007,268.332)">
                    <path d="M0,0L73.616,0" style="fill:none;fill-rule:nonzero;stroke:rgb(14,22,49);stroke-width:0.85px;stroke-linejoin:round;stroke-miterlimit:10;"/>
                </g>
                <g transform="matrix(0.969838,0,0,0.969838,300.007,278.756)">
                    <path d="M0,0L60.055,0" style="fill:none;fill-rule:nonzero;stroke:rgb(14,22,49);stroke-width:0.85px;stroke-linejoin:round;stroke-miterlimit:10;"/>
                </g>
                <g transform="matrix(0.969838,0,0,0.969838,444.512,302.113)">
                    <path d="M0,-93.64L-60.954,-93.64L-60.954,0L0,0C3.15,0 5.703,-2.553 5.703,-5.703L5.703,-87.937C5.703,-91.086 3.15,-93.64 0,-93.64Z" style="fill:rgb(255,250,229);fill-rule:nonzero;stroke:rgb(14,22,49);stroke-width:0.85px;stroke-linejoin:round;stroke-miterlimit:10;"/>
                </g>
                <g transform="matrix(0.969838,0,0,0.969838,434.697,226.589)">
                    <path d="M0,9.03L-35.999,9.03C-38.493,9.03 -40.514,7.009 -40.514,4.515C-40.514,2.021 -38.493,0 -35.999,0L0,0C2.494,0 4.515,2.021 4.515,4.515C4.515,7.009 2.494,9.03 0,9.03Z" style="fill:rgb(255,211,0);fill-rule:nonzero;stroke:rgb(4,14,44);stroke-width:0.85px;stroke-linejoin:round;"/>
                </g>
                <g transform="matrix(0.969838,0,0,0.969838,434.697,242.868)">
                    <path d="M0,9.03L-35.999,9.03C-38.493,9.03 -40.514,7.009 -40.514,4.515C-40.514,2.021 -38.493,0 -35.999,0L0,0C2.494,0 4.515,2.021 4.515,4.515C4.515,7.009 2.494,9.03 0,9.03Z" style="fill:rgb(255,211,0);fill-rule:nonzero;stroke:rgb(4,14,44);stroke-width:0.85px;stroke-linejoin:round;"/>
                </g>
                <g transform="matrix(0.969838,0,0,0.969838,434.697,258.289)">
                    <path d="M0,9.03L-35.999,9.03C-38.493,9.03 -40.514,7.009 -40.514,4.515C-40.514,2.021 -38.493,0 -35.999,0L0,0C2.494,0 4.515,2.021 4.515,4.515C4.515,7.009 2.494,9.03 0,9.03Z" style="fill:rgb(255,211,0);fill-rule:nonzero;stroke:rgb(4,14,44);stroke-width:0.85px;stroke-linejoin:round;"/>
                </g>
                <g transform="matrix(0.969838,0,0,0.969838,422.264,97.207)">
                    <path d="M0,93.64L-131.996,93.64C-135.553,93.64 -138.436,90.756 -138.436,87.199L-138.436,6.441C-138.436,2.884 -135.553,0 -131.996,0L0,0C3.557,0 6.441,2.884 6.441,6.441L6.441,87.199C6.441,90.756 3.557,93.64 0,93.64Z" style="fill:rgb(255,250,229);fill-rule:nonzero;stroke:rgb(16,22,47);stroke-width:0.85px;"/>
                </g>
                <g transform="matrix(0.969838,0,0,0.969838,350.175,112.84)">
                    <path d="M0,10.601L-51.296,10.601C-52.186,10.601 -52.907,9.88 -52.907,8.99L-52.907,1.611C-52.907,0.721 -52.186,0 -51.296,0L0,0C0.889,0 1.611,0.721 1.611,1.611L1.611,8.99C1.611,9.88 0.889,10.601 0,10.601" style="fill:rgb(25,28,49);fill-rule:nonzero;"/>
                </g>
                <g transform="matrix(0.969838,0,0,0.969838,300.007,133.394)">
                    <path d="M0,0L73.616,0" style="fill:none;fill-rule:nonzero;stroke:rgb(14,22,49);stroke-width:0.85px;stroke-linejoin:round;stroke-miterlimit:10;"/>
                </g>
                <g transform="matrix(0.969838,0,0,0.969838,300.007,143.817)">
                    <path d="M0,0L73.616,0" style="fill:none;fill-rule:nonzero;stroke:rgb(14,22,49);stroke-width:0.85px;stroke-linejoin:round;stroke-miterlimit:10;"/>
                </g>
                <g transform="matrix(0.969838,0,0,0.969838,300.007,154.241)">
                    <path d="M0,0L73.616,0" style="fill:none;fill-rule:nonzero;stroke:rgb(14,22,49);stroke-width:0.85px;stroke-linejoin:round;stroke-miterlimit:10;"/>
                </g>
                <g transform="matrix(0.969838,0,0,0.969838,300.007,164.665)">
                    <path d="M0,0L73.616,0" style="fill:none;fill-rule:nonzero;stroke:rgb(14,22,49);stroke-width:0.85px;stroke-linejoin:round;stroke-miterlimit:10;"/>
                </g>
                <g transform="matrix(0.969838,0,0,0.969838,300.007,175.089)">
                    <path d="M0,0L62.272,0" style="fill:none;fill-rule:nonzero;stroke:rgb(14,22,49);stroke-width:0.85px;stroke-linejoin:round;stroke-miterlimit:10;"/>
                </g>
                <g transform="matrix(0.969838,0,0,0.969838,444.512,188.023)">
                    <path d="M0,-93.64L-60.954,-93.64L-60.954,0L0,0C3.15,0 5.703,-2.553 5.703,-5.703L5.703,-87.937C5.703,-91.086 3.15,-93.64 0,-93.64Z" style="fill:rgb(255,250,229);fill-rule:nonzero;stroke:rgb(14,22,49);stroke-width:0.85px;stroke-linejoin:round;stroke-miterlimit:10;"/>
                </g>
                <g transform="matrix(0.969838,0,0,0.969838,435.127,112.499)">
                    <path d="M0,9.03L-35.999,9.03C-38.493,9.03 -40.514,7.008 -40.514,4.515C-40.514,2.021 -38.493,0 -35.999,0L0,0C2.494,0 4.515,2.021 4.515,4.515C4.515,7.008 2.494,9.03 0,9.03Z" style="fill:rgb(255,211,0);fill-rule:nonzero;stroke:rgb(4,14,44);stroke-width:0.85px;stroke-linejoin:round;"/>
                </g>
                <g transform="matrix(0.969838,0,0,0.969838,435.127,128.777)">
                    <path d="M0,9.03L-35.999,9.03C-38.493,9.03 -40.514,7.009 -40.514,4.515C-40.514,2.021 -38.493,0 -35.999,0L0,0C2.494,0 4.515,2.021 4.515,4.515C4.515,7.009 2.494,9.03 0,9.03Z" style="fill:rgb(255,211,0);fill-rule:nonzero;stroke:rgb(4,14,44);stroke-width:0.85px;stroke-linejoin:round;"/>
                </g>
                <g transform="matrix(0.969838,0,0,0.969838,435.127,144.199)">
                    <path d="M0,9.03L-35.999,9.03C-38.493,9.03 -40.514,7.009 -40.514,4.515C-40.514,2.021 -38.493,0 -35.999,0L0,0C2.494,0 4.515,2.021 4.515,4.515C4.515,7.009 2.494,9.03 0,9.03Z" style="fill:rgb(255,211,0);fill-rule:nonzero;stroke:rgb(4,14,44);stroke-width:0.85px;stroke-linejoin:round;"/>
                </g>
                <g transform="matrix(0.969838,0,0,0.969838,524.556,6.51861)">
                    <path d="M0,255.176L-206.155,255.176C-207.28,255.176 -208.192,254.264 -208.192,253.139L-208.192,2.037C-208.192,0.912 -207.28,0 -206.155,0L0,0C1.125,0 2.037,0.912 2.037,2.037L2.037,253.139C2.037,254.264 1.125,255.176 0,255.176Z" style="fill:white;fill-rule:nonzero;stroke:rgb(4,14,44);stroke-width:0.85px;"/>
                </g>
                <g transform="matrix(-0.969838,0,0,0.969838,728.695,-125.388)">
                    <rect x="356.63" y="253.364" width="28.845" height="28.845" style="fill:rgb(102,196,255);stroke:rgb(16,22,47);stroke-width:0.85px;"/>
                </g>
                <g transform="matrix(-0.969838,0,0,0.969838,728.695,-44.4379)">
                    <rect x="356.63" y="211.63" width="28.845" height="28.845" style="fill:rgb(102,196,255);stroke:rgb(16,22,47);stroke-width:0.85px;"/>
                </g>
                <g transform="matrix(-0.969838,0,0,0.969838,728.695,37.1429)">
                    <rect x="356.63" y="169.571" width="28.845" height="28.845" style="fill:white;stroke:rgb(4,14,44);stroke-width:0.85px;"/>
                </g>
                <g transform="matrix(0.969838,0,0,0.969838,394.479,127.327)">
                    <path d="M0,0L106.545,0" style="fill:none;fill-rule:nonzero;stroke:rgb(16,22,47);stroke-width:0.85px;"/>
                </g>
                <g transform="matrix(0.969838,0,0,0.969838,394.479,141.315)">
                    <path d="M0,0L106.545,0" style="fill:none;fill-rule:nonzero;stroke:rgb(16,22,47);stroke-width:0.85px;"/>
                </g>
                <g transform="matrix(0.969838,0,0,0.969838,394.479,171.622)">
                    <path d="M0,0L106.545,0" style="fill:none;fill-rule:nonzero;stroke:rgb(16,22,47);stroke-width:0.85px;"/>
                </g>
                <g transform="matrix(0.969838,0,0,0.969838,394.479,185.609)">
                    <path d="M0,0L106.545,0" style="fill:none;fill-rule:nonzero;stroke:rgb(16,22,47);stroke-width:0.85px;"/>
                </g>
                <g transform="matrix(0.969838,0,0,0.969838,394.479,208.922)">
                    <path d="M0,0L106.545,0" style="fill:none;fill-rule:nonzero;stroke:rgb(16,22,47);stroke-width:0.85px;"/>
                </g>
                <g transform="matrix(0.969838,0,0,0.969838,394.479,222.91)">
                    <path d="M0,0L106.545,0" style="fill:none;fill-rule:nonzero;stroke:rgb(16,22,47);stroke-width:0.85px;"/>
                </g>
                <g transform="matrix(-0.969838,0,0,0.969838,842.849,-193.294)">
                    <rect x="356.63" y="295.443" width="146.549" height="14.705" style="fill:rgb(255,250,229);stroke:rgb(14,22,49);stroke-width:0.85px;stroke-linejoin:round;stroke-miterlimit:10;"/>
                </g>
                <g transform="matrix(0,-0.969838,-0.969838,0,380.849,28.4347)">
                    <path d="M-25.783,-25.783C-40.023,-25.783 -51.566,-14.24 -51.566,-0C-51.566,14.239 -40.023,25.783 -25.783,25.783C-11.543,25.783 -0,14.239 -0,-0C-0,-14.24 -11.543,-25.783 -25.783,-25.783" style="fill:rgb(255,211,0);fill-rule:nonzero;"/>
                </g>
                <g transform="matrix(0,-0.969838,-0.969838,0,380.849,28.4347)">
                    <circle cx="-25.783" cy="0" r="25.783" style="fill:none;stroke:rgb(4,14,44);stroke-width:0.85px;stroke-linejoin:round;"/>
                </g>
                <g transform="matrix(0,-0.969838,-0.969838,0,380.849,38.3207)">
                    <path d="M-8.893,-8.893C-13.804,-8.893 -17.786,-4.911 -17.786,0C-17.786,4.912 -13.804,8.893 -8.893,8.893C-3.982,8.893 0,4.912 0,0C0,-4.911 -3.982,-8.893 -8.893,-8.893" style="fill:rgb(16,22,47);fill-rule:nonzero;"/>
                </g>
                <g transform="matrix(0.969838,0,0,0.969838,380.849,56.6803)">
                    <path d="M0,22.442C7.682,22.442 14.559,19.064 19.283,13.733C16.508,5.744 8.934,0 0,0C-8.934,0 -16.508,5.744 -19.283,13.733C-14.559,19.064 -7.682,22.442 0,22.442" style="fill:rgb(16,22,47);fill-rule:nonzero;"/>
                </g>
                <g transform="matrix(0.969838,0,0,0.969838,419.107,47.5787)">
                    <path d="M0,0L76.807,0" style="fill:none;fill-rule:nonzero;stroke:rgb(4,14,44);stroke-width:0.85px;"/>
                </g>
                <g transform="matrix(0.969838,0,0,0.969838,419.107,63.2704)">
                    <path d="M0,0L76.807,0" style="fill:none;fill-rule:nonzero;stroke:rgb(4,14,44);stroke-width:0.85px;"/>
                </g>
                <g transform="matrix(0.969838,0,0,0.969838,351.365,127.297)">
                    <path d="M0,4.104L11.489,14.362L37.341,-10.258" style="fill:none;fill-rule:nonzero;stroke:rgb(16,22,47);stroke-width:0.85px;"/>
                </g>
                <g transform="matrix(0.969838,0,0,0.969838,351.365,168.287)">
                    <path d="M0,4.104L11.489,14.362L37.341,-10.258" style="fill:none;fill-rule:nonzero;stroke:rgb(16,22,47);stroke-width:0.85px;"/>
                </g>
                <g transform="matrix(-0.969838,0,0,0.969838,981.862,216.819)">
                    <rect x="408.595" y="0.5" width="185.955" height="181.723" style="fill:white;stroke:rgb(4,14,44);stroke-width:0.85px;"/>
                </g>
                <g transform="matrix(0.969838,0,0,0.969838,495.418,245.637)">
                    <path d="M0,123.293C-34.046,123.293 -61.646,95.693 -61.646,61.647C-61.646,27.601 -34.046,0.001 0,0.001C34.046,0.001 61.646,27.601 61.646,61.647C61.646,95.693 34.046,123.293 0,123.293M0,-11.702C-40.509,-11.702 -73.348,21.138 -73.348,61.647C-73.348,102.156 -40.509,134.995 0,134.995C40.509,134.995 73.348,102.156 73.348,61.647C73.348,21.138 40.509,-11.702 0,-11.702" style="fill:rgb(255,250,229);fill-rule:nonzero;"/>
                </g>
                <g transform="matrix(0.969838,0,0,0.969838,495.418,245.637)">
                    <path d="M0,123.293C-34.046,123.293 -61.646,95.693 -61.646,61.647C-61.646,27.601 -34.046,0.001 0,0.001C34.046,0.001 61.646,27.601 61.646,61.647C61.646,95.693 34.046,123.293 0,123.293ZM0,-11.702C-40.509,-11.702 -73.348,21.138 -73.348,61.647C-73.348,102.156 -40.509,134.995 0,134.995C40.509,134.995 73.348,102.156 73.348,61.647C73.348,21.138 40.509,-11.702 0,-11.702Z" style="fill:none;fill-rule:nonzero;stroke:rgb(16,22,47);stroke-width:0.85px;"/>
                </g>
                <g transform="matrix(0.969838,0,0,0.969838,555.205,306.38)">
                    <path d="M0,-0.985C0,33.546 -28.391,61.446 -63.104,60.645C-95.682,59.892 -122.315,33.428 -123.265,0.856C-123.541,-8.585 -121.69,-17.564 -118.159,-25.642C-116.926,-28.463 -118.167,-31.756 -120.921,-33.133L-120.954,-33.15C-123.918,-34.632 -127.557,-33.367 -128.884,-30.331C-132.975,-20.974 -135.171,-10.6 -134.983,0.308C-134.31,39.394 -102.595,71.368 -63.516,72.34C-22.152,73.37 11.702,40.146 11.702,-0.985C11.702,-39.386 -17.809,-70.895 -55.389,-74.07C-58.766,-74.355 -61.646,-71.637 -61.646,-68.248L-61.646,-68.216C-61.646,-65.157 -59.28,-62.662 -56.233,-62.397C-24.722,-59.655 0,-33.207 0,-0.985" style="fill:rgb(102,196,255);fill-rule:nonzero;"/>
                </g>
                <g transform="matrix(0.969838,0,0,0.969838,555.205,306.38)">
                    <path d="M0,-0.985C0,33.546 -28.391,61.446 -63.104,60.645C-95.682,59.892 -122.315,33.428 -123.265,0.856C-123.541,-8.585 -121.69,-17.564 -118.159,-25.642C-116.926,-28.463 -118.167,-31.756 -120.921,-33.133L-120.954,-33.15C-123.918,-34.632 -127.557,-33.367 -128.884,-30.331C-132.975,-20.974 -135.171,-10.6 -134.983,0.308C-134.31,39.394 -102.595,71.368 -63.516,72.34C-22.152,73.37 11.702,40.146 11.702,-0.985C11.702,-39.386 -17.809,-70.895 -55.389,-74.07C-58.766,-74.355 -61.646,-71.637 -61.646,-68.248L-61.646,-68.216C-61.646,-65.157 -59.28,-62.662 -56.233,-62.397C-24.722,-59.655 0,-33.207 0,-0.985Z" style="fill:none;fill-rule:nonzero;stroke:rgb(16,22,47);stroke-width:0.85px;"/>
                </g>
                <g transform="matrix(0.969838,0,0,0.969838,482.386,307.752)">
                    <path d="M0,-12.43C0.948,-13.439 1.422,-14.769 1.422,-16.418C1.422,-18.025 0.948,-19.324 0,-20.314C-0.949,-21.304 -2.206,-21.798 -3.772,-21.798C-5.339,-21.798 -6.596,-21.304 -7.544,-20.314C-8.493,-19.324 -8.966,-18.025 -8.966,-16.418C-8.966,-14.769 -8.493,-13.439 -7.544,-12.43C-6.596,-11.419 -5.339,-10.915 -3.772,-10.915C-2.206,-10.915 -0.949,-11.419 0,-12.43M0.742,7.08C1.937,5.967 2.535,4.442 2.535,2.504C2.535,0.566 1.937,-0.959 0.742,-2.072C-0.454,-3.185 -1.959,-3.741 -3.772,-3.741C-5.587,-3.741 -7.091,-3.185 -8.286,-2.072C-9.482,-0.959 -10.079,0.566 -10.079,2.504C-10.079,4.442 -9.482,5.967 -8.286,7.08C-7.091,8.192 -5.587,8.749 -3.772,8.749C-1.959,8.749 -0.454,8.192 0.742,7.08M-10.822,14.284C-12.965,13.191 -14.676,11.635 -15.954,9.615C-17.232,7.596 -17.871,5.225 -17.871,2.504C-17.871,0.113 -17.376,-1.958 -16.387,-3.711C-15.397,-5.462 -13.996,-6.854 -12.182,-7.885C-13.46,-8.914 -14.449,-10.172 -15.15,-11.657C-15.851,-13.141 -16.201,-14.769 -16.201,-16.542C-16.201,-18.685 -15.675,-20.654 -14.624,-22.447C-13.573,-24.24 -12.1,-25.672 -10.203,-26.745C-8.307,-27.816 -6.163,-28.352 -3.772,-28.352C-1.382,-28.352 0.762,-27.816 2.659,-26.745C4.555,-25.672 6.029,-24.24 7.08,-22.447C8.131,-20.654 8.657,-18.685 8.657,-16.542C8.657,-14.769 8.306,-13.141 7.606,-11.657C6.904,-10.172 5.895,-8.914 4.576,-7.885C6.389,-6.854 7.801,-5.462 8.811,-3.711C9.821,-1.958 10.327,0.113 10.327,2.504C10.327,5.225 9.687,7.596 8.409,9.615C7.131,11.635 5.42,13.191 3.277,14.284C1.133,15.376 -1.217,15.922 -3.772,15.922C-6.329,15.922 -8.678,15.376 -10.822,14.284" style="fill:rgb(16,22,47);fill-rule:nonzero;"/>
                </g>
                <g transform="matrix(0.969838,0,0,0.969838,519.148,301.724)">
                    <path d="M0,0C0,-9.976 -2.762,-14.965 -8.286,-14.965C-13.811,-14.965 -16.572,-9.976 -16.572,0C-16.572,9.977 -13.811,14.964 -8.286,14.964C-2.762,14.964 0,9.977 0,0M-20.097,16.294C-22.859,12.398 -24.24,6.966 -24.24,0C-24.24,-6.966 -22.859,-12.399 -20.097,-16.294C-17.336,-20.19 -13.398,-22.137 -8.286,-22.137C-3.175,-22.137 0.762,-20.19 3.524,-16.294C6.286,-12.399 7.667,-6.966 7.667,0C7.667,6.966 6.286,12.398 3.524,16.294C0.762,20.189 -3.175,22.137 -8.286,22.137C-13.398,22.137 -17.336,20.189 -20.097,16.294" style="fill:rgb(16,22,47);fill-rule:nonzero;"/>
                </g>
                <g transform="matrix(0.969838,0,0,0.969838,468.067,333.925)">
                    <path d="M0,0L56.403,0" style="fill:none;fill-rule:nonzero;stroke:rgb(16,22,47);stroke-width:0.85px;"/>
                </g>
                <g transform="matrix(0.969838,0,0,0.969838,468.067,341.618)">
                    <path d="M0,0L56.403,0" style="fill:none;fill-rule:nonzero;stroke:rgb(16,22,47);stroke-width:0.85px;"/>
                </g>
                <g transform="matrix(0.969838,0,0,0.969838,407.241,315.829)">
                    <path d="M0,34.933L-101.269,34.933C-102.926,34.933 -104.269,33.59 -104.269,31.933L-104.269,3C-104.269,1.343 -102.926,0 -101.269,0L0,0C1.657,0 3,1.343 3,3L3,31.933C3,33.59 1.657,34.933 0,34.933Z" style="fill:rgb(16,22,47);fill-rule:nonzero;stroke:rgb(16,22,47);stroke-width:0.85px;stroke-miterlimit:10;"/>
                </g>
                <g transform="matrix(0.969838,0,0,0.969838,409.71,313.359)">
                    <path d="M0,34.933L-101.269,34.933C-102.926,34.933 -104.269,33.59 -104.269,31.933L-104.269,3C-104.269,1.343 -102.926,0 -101.269,0L0,0C1.657,0 3,1.343 3,3L3,31.933C3,33.59 1.657,34.933 0,34.933Z" style="fill:rgb(255,211,0);fill-rule:nonzero;stroke:rgb(16,22,47);stroke-width:0.85px;stroke-miterlimit:10;"/>
                </g>
                <g transform="matrix(0.969838,0,0,0.969838,8.974,6.03341)">
                    <text x="325.425px" y="338.583px" style="font-family:'ApercuPro-Bold', 'Apercu Pro', sans-serif;font-weight:700;font-size:15.275px;">Get r<tspan x="360.572px " y="338.583px ">e</tspan>por<tspan x="394.054px " y="338.583px ">t</tspan></text>
                </g>
                <g transform="matrix(0.969838,0,0,0.969838,241.404,290.574)">
                    <path d="M0,94.033L-236.509,94.033C-237.973,94.033 -239.159,92.847 -239.159,91.384L-239.159,2.649C-239.159,1.186 -237.973,0 -236.509,0L0,0C1.463,0 2.649,1.186 2.649,2.649L2.649,91.384C2.649,92.847 1.463,94.033 0,94.033Z" style="fill:white;fill-rule:nonzero;stroke:rgb(4,14,44);stroke-width:0.85px;"/>
                </g>
                <g transform="matrix(0.969838,0,0,0.969838,143.567,327.961)">
                    <path d="M0,11.117L-56.271,11.117C-58.929,11.117 -61.083,8.963 -61.083,6.305L-61.083,4.812C-61.083,2.155 -58.929,0 -56.271,0L0,0C2.658,0 4.812,2.155 4.812,4.812L4.812,6.305C4.812,8.963 2.658,11.117 0,11.117Z" style="fill:rgb(255,211,0);fill-rule:nonzero;stroke:rgb(4,14,44);stroke-width:0.85px;stroke-linejoin:round;"/>
                </g>
                <g transform="matrix(0.969838,0,0,0.969838,206.347,346.638)">
                    <path d="M0,11.117L-72.453,11.117C-75.111,11.117 -77.265,8.963 -77.265,6.305L-77.265,4.812C-77.265,2.155 -75.111,0 -72.453,0L0,0C2.658,0 4.812,2.155 4.812,4.812L4.812,6.305C4.812,8.963 2.658,11.117 0,11.117Z" style="fill:rgb(255,211,0);fill-rule:nonzero;stroke:rgb(4,14,44);stroke-width:0.85px;stroke-linejoin:round;"/>
                </g>
                <g transform="matrix(0.969838,0,0,0.969838,122.885,346.638)">
                    <path d="M0,11.117L-34.946,11.117C-37.603,11.117 -39.758,8.963 -39.758,6.305L-39.758,4.812C-39.758,2.155 -37.603,0 -34.946,0L0,0C2.658,0 4.812,2.155 4.812,4.812L4.812,6.305C4.812,8.963 2.658,11.117 0,11.117Z" style="fill:rgb(255,211,0);fill-rule:nonzero;stroke:rgb(4,14,44);stroke-width:0.85px;stroke-linejoin:round;"/>
                </g>
                <g transform="matrix(0.969838,0,0,0.969838,182.161,327.961)">
                    <path d="M0,11.117L-25.232,11.117C-27.89,11.117 -30.044,8.963 -30.044,6.305L-30.044,4.812C-30.044,2.155 -27.89,0 -25.232,0L0,0C2.658,0 4.812,2.155 4.812,4.812L4.812,6.305C4.812,8.963 2.658,11.117 0,11.117Z" style="fill:rgb(255,211,0);fill-rule:nonzero;stroke:rgb(4,14,44);stroke-width:0.85px;stroke-linejoin:round;"/>
                </g>
                <g transform="matrix(0.969838,0,0,0.969838,220.003,327.961)">
                    <path d="M0,11.117L-25.232,11.117C-27.89,11.117 -30.044,8.963 -30.044,6.305L-30.044,4.812C-30.044,2.155 -27.89,0 -25.232,0L0,0C2.658,0 4.812,2.155 4.812,4.812L4.812,6.305C4.812,8.963 2.658,11.117 0,11.117Z" style="fill:rgb(255,211,0);fill-rule:nonzero;stroke:rgb(4,14,44);stroke-width:0.85px;stroke-linejoin:round;"/>
                </g>
                <g transform="matrix(0.969838,0,0,0.969838,243.974,290.549)">
                    <path d="M0,18.07L-241.808,18.07L-241.808,2.649C-241.808,1.186 -240.622,0 -239.159,0L-2.649,0C-1.186,0 0,1.186 0,2.649L0,18.07Z" style="fill:rgb(255,211,0);fill-rule:nonzero;stroke:rgb(4,14,44);stroke-width:0.85px;"/>
                </g>
                <g transform="matrix(0,-0.969838,-0.969838,0,49.2656,321.334)">
                    <path d="M-23.473,-23.473C-36.438,-23.473 -46.947,-12.964 -46.947,-0C-46.947,12.965 -36.438,23.473 -23.473,23.473C-10.509,23.473 -0,12.965 -0,-0C-0,-12.964 -10.509,-23.473 -23.473,-23.473" style="fill:rgb(255,250,229);fill-rule:nonzero;"/>
                </g>
                <g transform="matrix(0,-0.969838,-0.969838,0,49.2656,321.334)">
                    <ellipse cx="-23.474" cy="0" rx="23.473" ry="23.473" style="fill:none;stroke:rgb(35,24,21);stroke-width:0.85px;stroke-linecap:round;stroke-linejoin:round;"/>
                </g>
                <g transform="matrix(0.969838,0,0,0.969838,45.7336,333.621)">
                    <path d="M0,23.944L-9.961,13.981L-5.293,9.313L0,14.606L14.607,0L19.275,4.668L0,23.944Z" style="fill:rgb(255,211,0);fill-rule:nonzero;stroke:rgb(4,14,44);stroke-width:0.85px;stroke-linejoin:round;"/>
                </g>
            </g>
        </g>
    </g>
</svg>
