<svg xmlns="http://www.w3.org/2000/svg" viewBox="0 0 24 24" fill="#fff" role="img" aria-hidden="true" class="gamut-hwsb4h eol2zvm0"><mask id="AddBoldIcon-mask-:R1j3aqkqhbdb9l6:"><path d="M0 12a1.5 1.5 0 001.5 1.5h8.75a.25.25 0 01.25.25v8.75a1.5 1.5 0 003 0v-8.75a.25.25 0 01.25-.25h8.75a1.5 1.5 0 000-3h-8.75a.25.25 0 01-.25-.25V1.5a1.5 1.5 0 00-3 0v8.75a.25.25 0 01-.25.25H1.5A1.5 1.5 0 000 12z"></path></mask><g mask="url(#AddBoldIcon-mask-:R1j3aqkqhbdb9l6:)"><rect width="100%" height="100%" fill="currentColor"></rect></g></svg>