<?xml version="1.0" encoding="UTF-8" standalone="no"?>
<!DOCTYPE svg PUBLIC "-//W3C//DTD SVG 1.1//EN" "http://www.w3.org/Graphics/SVG/1.1/DTD/svg11.dtd">
<svg width="100%" height="100%" viewBox="0 0 720 720" version="1.1" xmlns="http://www.w3.org/2000/svg" xmlns:xlink="http://www.w3.org/1999/xlink" xml:space="preserve" xmlns:serif="http://www.serif.com/" style="fill-rule:evenodd;clip-rule:evenodd;stroke-linejoin:round;">
    <rect id="Artboard1" x="0" y="0" width="720" height="720" style="fill:none;"/>
    <g id="Artboard11" serif:id="Artboard1">
        <g id="Layer-1" serif:id="Layer 1">
        </g>
        <g id="Layer-2" serif:id="Layer 2">
        </g>
        <g id="Layer-11" serif:id="Layer 1" transform="matrix(1.9298,0,0,1.9298,67.4119,65.3256)">
            <g transform="matrix(1,0,0,1,126.15,61.5033)">
                <path d="M0,-20.072L-17.455,8.652L-23.649,18.844L1.961,30.448L25.071,40.931L25.039,23.057L24.985,-5.829L24.943,-28.131L24.878,-61.003L0,-20.072Z" style="fill:rgb(58,16,229);fill-rule:nonzero;"/>
            </g>
            <g transform="matrix(1,0,0,1,151.222,0.5006)">
                <path d="M0,101.934L-23.11,91.451L-48.721,79.847L-42.525,69.655L-25.072,40.93L-0.194,0L-0.129,32.871L-0.086,55.174L-0.032,84.06L0,101.934Z" style="fill:none;fill-rule:nonzero;stroke:rgb(14,22,49);stroke-width:0.52px;"/>
            </g>
            <g transform="matrix(1,0,0,1,151.534,171.314)">
                <path d="M0,94.737L-125.907,35.512L-104.327,0L-4.363,45.327C-3.006,45.941 -1.551,46.264 -0.097,46.286L0,94.737Z" style="fill:rgb(58,16,229);fill-rule:nonzero;stroke:rgb(14,22,49);stroke-width:0.52px;"/>
            </g>
            <g transform="matrix(1,0,0,1,200.169,22.5123)">
                <path d="M0,58.083L-25.05,69.439L-48.56,80.095L-48.947,79.922L-48.979,62.048L-49.034,33.162L-49.076,10.86L-49.141,-22.012L-24.275,18.52L-6.615,47.309L0,58.083Z" style="fill:rgb(102,196,255);fill-rule:nonzero;stroke:rgb(14,22,49);stroke-width:0.52px;"/>
            </g>
            <g transform="matrix(1,0,0,1,244.505,141.233)">
                <path d="M0,11.636L-92.895,53.763L-93.11,53.666L-93.24,-16.021C-93.122,-16.011 -93.014,-16.011 -92.895,-16.011C-91.376,-16.011 -89.857,-16.334 -88.445,-16.98L-68.265,-26.127L-39.606,-39.121L-32.98,-42.127L-28.907,-35.469L-11.238,-6.68L0,11.636Z" style="fill:rgb(102,196,255);fill-rule:nonzero;stroke:rgb(14,22,49);stroke-width:0.52px;"/>
            </g>
            <g transform="matrix(1,0,0,1,277.603,230.636)">
                <path d="M0,-23.81L-125.994,35.448L-126.069,35.415L-126.166,-13.036L-125.994,-13.036C-124.475,-13.036 -122.955,-13.359 -121.544,-13.995L-21.743,-59.258L0,-23.81Z" style="fill:rgb(102,196,255);fill-rule:nonzero;stroke:rgb(14,22,49);stroke-width:0.52px;"/>
            </g>
            <g transform="matrix(-0.789135,0.61422,0.61422,0.789135,194.943,333.27)">
                <path d="M-142.895,-49.01L16.766,-49.01L-7.032,-79.708L-7.071,-79.636L-142.895,-49.01Z" style="fill:rgb(58,16,229);fill-rule:nonzero;stroke:rgb(14,22,49);stroke-width:0.52px;"/>
            </g>
            <g transform="matrix(1,0,0,1,151.609,206.826)">
                <path d="M0,98.067L-125.982,0L-0.075,59.226L0,98.067Z" style="fill:rgb(16,22,47);fill-rule:nonzero;stroke:rgb(16,22,47);stroke-width:0.52px;stroke-linejoin:miter;"/>
            </g>
            <g transform="matrix(1,0,0,1,296.404,170.37)">
                <path d="M0,-17.368L-40.543,1.013L-140.345,46.275C-141.756,46.911 -143.275,47.234 -144.794,47.234L-144.967,47.234C-146.421,47.213 -147.876,46.889 -149.233,46.275L-249.196,0.948L-289.578,-17.368C-293.597,-19.189 -296.107,-23.283 -295.892,-27.7C-295.676,-32.118 -292.789,-35.943 -288.608,-37.376L-209.504,-64.354L-226.958,-35.641L-255.909,-25.761L-237.916,-17.605L-145.01,24.533L-144.794,24.63L-51.899,-17.497L-33.669,-25.761L-63.137,-35.813L-80.806,-64.602L-0.97,-37.376C3.211,-35.943 6.098,-32.118 6.314,-27.7C6.529,-23.283 4.019,-19.189 0,-17.368Z" style="fill:rgb(255,140,0);fill-rule:nonzero;stroke:rgb(14,22,49);stroke-width:0.52px;"/>
            </g>
            <g transform="matrix(1,0,0,1,244.559,82.1245)">
                <path d="M0,2.005L-33.034,16.981L-39.66,19.987L-68.319,32.981L-88.499,42.128C-89.911,42.774 -91.43,43.097 -92.95,43.097C-93.068,43.097 -93.176,43.097 -93.294,43.087C-94.684,43.044 -96.084,42.72 -97.388,42.128L-117.568,32.981L-146.228,19.987L-153.328,16.765L-185.887,2.005C-189.906,0.173 -192.417,-3.921 -192.201,-8.328C-191.986,-12.745 -189.098,-16.58 -184.918,-18.003L-118.409,-40.694L-135.863,-11.969L-152.218,-6.388L-142.058,-1.777L-116.448,9.827L-93.337,20.31L-92.95,20.483L-69.44,9.827L-44.39,-1.529L-33.669,-6.388L-51.005,-12.303L-68.664,-41.092L-0.97,-18.003C3.21,-16.58 6.098,-12.745 6.314,-8.328C6.529,-3.921 4.018,0.173 0,2.005Z" style="fill:rgb(249,102,255);fill-rule:nonzero;stroke:rgb(14,22,49);stroke-width:0.52px;stroke-linejoin:miter;"/>
            </g>
            <g transform="matrix(1,0,0,1,151.395,98.8938)">
                <path d="M0,96.009L-92.906,53.871L-81.949,35.835L-64.494,7.122L-60.163,0L-53.063,3.222L-24.404,16.215L-4.224,25.363C-2.92,25.955 -1.519,26.278 -0.129,26.321L0,96.009Z" style="fill:rgb(58,16,229);fill-rule:nonzero;stroke:rgb(14,22,49);stroke-width:0.52px;"/>
            </g>
        </g>
    </g>
</svg>
