<svg width="200" height="63" viewBox="0 0 200 63" fill="none" xmlns="http://www.w3.org/2000/svg">
<path d="M79.1828 41.0385C78.5283 41.0385 77.9673 40.9192 77.4864 40.6806C77.0055 40.4421 76.7384 40.0576 76.6449 39.5407H72.8781C72.9048 40.7072 73.2254 41.7013 73.8398 42.5099C74.4676 43.3185 75.2691 43.915 76.2709 44.2994C77.2727 44.6838 78.3413 44.8826 79.4766 44.8826C79.7037 44.8826 80.051 44.8428 80.5185 44.7633L81.2398 44.6705V40.7072C81.0662 40.7469 80.7723 40.8132 80.3315 40.906C79.9308 40.9855 79.5434 41.0385 79.1828 41.0385ZM79.8907 15.7871C78.4882 15.1641 76.6182 14.8459 74.2673 14.8459C71.9164 14.8459 70.0463 15.1641 68.6438 15.7871C67.2413 16.4101 66.1861 17.5898 65.4648 19.2997C64.7435 21.0229 64.3828 23.4884 64.3828 26.7095C64.3828 29.9305 64.7435 32.396 65.4648 34.106C66.1861 35.8159 67.2413 36.9824 68.6438 37.6054C70.0463 38.2284 71.9164 38.5465 74.2673 38.5465C76.6182 38.5465 78.4748 38.2284 79.8907 37.6054C81.2932 36.9824 82.3485 35.8159 83.0698 34.106C83.7911 32.396 84.1517 29.9305 84.1517 26.7095C84.1517 23.4884 83.7911 21.0097 83.0698 19.2997C82.3618 17.5898 81.2932 16.4101 79.8907 15.7871ZM78.2878 31.1103C78.034 32.0912 77.6066 32.7672 76.9922 33.1383C76.3777 33.5095 75.4694 33.6818 74.2673 33.6818C73.0651 33.6818 72.1568 33.4962 71.5424 33.1383C70.9279 32.7672 70.5005 32.0912 70.2467 31.1103C69.9929 30.1294 69.8727 28.658 69.8727 26.7095C69.8727 24.6947 70.0063 23.1968 70.2734 22.2159C70.5406 21.235 70.968 20.5723 71.5691 20.2276C72.1702 19.883 73.0785 19.7107 74.2806 19.7107C75.5095 19.7107 76.4178 19.883 77.0189 20.2276C77.62 20.5723 78.0474 21.235 78.3012 22.2159C78.555 23.1968 78.6752 24.6947 78.6752 26.7095C78.6752 28.658 78.5416 30.1294 78.2878 31.1103ZM97.3087 32.6877C96.9481 33.0058 96.4939 33.2576 95.9463 33.4697C95.3986 33.6818 94.9044 33.7879 94.4636 33.7879C93.7824 33.7879 93.2748 33.642 92.9275 33.3504C92.5802 33.0588 92.4066 32.5286 92.4066 31.7863V21.4869H86.9301V33.4697C86.9301 35.0339 87.3575 36.2799 88.2124 37.1945C89.0672 38.1091 90.2427 38.5598 91.7387 38.5598C93.4752 38.5598 95.3319 37.9368 97.3087 36.704L98.2304 38.3742H102.759V21.4736H97.3087V32.6877ZM118.6 22.5208C117.452 21.6725 115.729 21.2483 113.431 21.2483C110.746 21.2748 108.395 21.6327 106.378 22.3485V25.4635H111.374C112.363 25.4635 113.111 25.5298 113.605 25.6491C114.099 25.7684 114.433 25.9805 114.607 26.2456C114.78 26.5239 114.86 26.9083 114.86 27.412V28.2339H111C109.103 28.2339 107.674 28.6315 106.726 29.4401C105.777 30.2487 105.296 31.3224 105.296 32.6612V34.2916C105.296 35.5906 105.697 36.6245 106.499 37.4066C107.3 38.1754 108.355 38.573 109.664 38.573C110.866 38.573 111.962 38.3742 112.937 37.9633C113.912 37.5524 114.647 37.115 115.141 36.6643L115.996 38.3875H120.337V27.0541C120.324 24.867 119.749 23.3691 118.6 22.5208ZM114.847 34.2253C114.673 34.3313 114.326 34.4639 113.805 34.6229C113.271 34.782 112.83 34.8483 112.469 34.8218C111.307 34.8218 110.733 34.3446 110.733 33.3769V32.7142C110.733 31.6935 111.427 31.097 112.817 30.9512L114.847 30.7656V34.2253ZM133.935 21.182C133.053 21.182 132.131 21.3808 131.196 21.7652C130.261 22.1497 129.487 22.6136 128.872 23.1305L127.924 21.4604H123.396V38.361H128.872V27.1469C129.754 26.4179 130.716 26.0467 131.757 26.0467C133.093 26.0467 133.748 26.7228 133.748 28.0615V38.361H139.224V27.3325C139.224 25.4105 138.837 23.8994 138.075 22.8124C137.287 21.7255 135.912 21.182 133.935 21.182ZM148.868 16.7282H144.527L143.832 21.4736L140.987 22.322V25.7816H143.619L143.458 32.184C143.392 33.7348 143.552 34.9543 143.913 35.8557C144.287 36.7571 144.888 37.4066 145.716 37.791C146.544 38.1754 147.666 38.3742 149.082 38.3742H152.408V34.3578L150.257 34.1325C149.79 34.0927 149.443 33.9204 149.216 33.6155C148.988 33.3107 148.868 32.8202 148.868 32.1574V25.7816H152.568V21.4736H148.868V16.7282ZM165.164 32.6877C164.804 33.0058 164.349 33.2576 163.802 33.4697C163.254 33.6818 162.76 33.7879 162.319 33.7879C161.638 33.7879 161.13 33.642 160.783 33.3504C160.436 33.0588 160.262 32.5286 160.262 31.7863V21.4869H154.786V33.4697C154.786 35.0339 155.213 36.2799 156.068 37.1945C156.923 38.1091 158.098 38.5598 159.594 38.5598C161.317 38.5598 163.187 37.9368 165.164 36.704L166.086 38.3742H170.614V21.4736H165.164V32.6877ZM198.785 22.7859C197.983 21.7122 196.581 21.182 194.577 21.182C192.894 21.182 190.997 21.9508 188.914 23.5017C188.54 22.7859 187.992 22.2292 187.284 21.805C186.576 21.3808 185.721 21.182 184.706 21.182C183.544 21.182 182.569 21.3543 181.781 21.6857C180.993 22.0171 180.151 22.5075 179.27 23.1305L178.321 21.4604H173.793V38.361H179.27V27.1469C180.151 26.4179 181.113 26.0467 182.155 26.0467C183.491 26.0467 184.145 26.7228 184.145 28.0615V38.361H189.622V28.1543C189.622 27.929 189.595 27.5976 189.555 27.1867C189.956 26.8553 190.423 26.5769 190.944 26.3649C191.465 26.1528 191.986 26.0467 192.493 26.0467C193.843 26.0467 194.524 26.7228 194.524 28.0615V38.361H200V27.5578C199.987 25.4502 199.586 23.8596 198.785 22.7859Z" fill="#012169"/>
<path d="M103.613 45.7309H105.697V51.8549H106.913V45.7309H108.996V44.644H103.613V45.7309ZM115.221 44.644C114.793 44.644 114.433 44.7633 114.126 45.0151C113.818 45.267 113.671 45.6646 113.671 46.2214V50.3836C113.671 50.9933 113.832 51.4042 114.166 51.603C114.5 51.8019 114.887 51.9079 115.354 51.9079C116.517 51.8947 117.518 51.8549 118.346 51.7754V50.768H115.595C115.127 50.768 114.887 50.5294 114.887 50.0389V48.7929L117.906 48.7266V47.7855L114.887 47.7192V46.4335C114.887 46.2081 114.954 46.0358 115.074 45.9165C115.194 45.7972 115.381 45.7442 115.608 45.7442H118.36V44.7368C117.785 44.7103 117.265 44.6838 116.824 44.6572C116.37 44.644 115.835 44.644 115.221 44.644ZM125.907 44.5777C125.306 44.5777 124.811 44.6837 124.424 44.8826C124.037 45.0814 123.756 45.4526 123.556 45.9828C123.355 46.513 123.262 47.2553 123.262 48.2097C123.262 49.2171 123.355 49.9859 123.556 50.5294C123.743 51.0596 124.023 51.4307 124.397 51.6163C124.771 51.8151 125.252 51.9079 125.88 51.9079C126.775 51.9079 127.523 51.8151 128.111 51.6428V50.7149C127.55 50.7812 126.895 50.821 126.147 50.821C125.706 50.821 125.359 50.7547 125.132 50.6222C124.905 50.4896 124.745 50.2377 124.638 49.8666C124.544 49.4954 124.491 48.952 124.491 48.2362C124.491 47.5071 124.544 46.9637 124.651 46.6058C124.758 46.2346 124.932 45.996 125.159 45.8635C125.386 45.7309 125.72 45.6646 126.161 45.6646C126.535 45.6646 126.909 45.6779 127.283 45.7177C127.643 45.7442 127.924 45.7839 128.124 45.8237V44.8958C127.844 44.8163 127.496 44.7368 127.109 44.6705C126.708 44.6042 126.307 44.5777 125.907 44.5777ZM137.421 47.759H134.362V44.644H133.146V51.8549H134.362V48.8459H137.421V51.8549H138.636V44.644H137.421V47.759ZM148.307 49.7871L144.994 44.644H144.019V51.8549H145.235V46.7118L148.548 51.8549H149.523V44.644H148.307V49.7871ZM159.153 44.8561C158.739 44.6705 158.178 44.5645 157.47 44.5645C156.776 44.5645 156.215 44.6572 155.801 44.8561C155.386 45.0549 155.079 45.4128 154.866 45.943C154.652 46.4732 154.545 47.2553 154.545 48.2627C154.545 49.2701 154.652 50.0389 154.866 50.5691C155.079 51.0993 155.386 51.444 155.801 51.6296C156.215 51.8151 156.776 51.9079 157.47 51.9079C158.178 51.9079 158.739 51.8151 159.153 51.6296C159.567 51.444 159.875 51.0861 160.088 50.5691C160.302 50.0389 160.409 49.2834 160.409 48.2627C160.409 47.242 160.302 46.4732 160.088 45.943C159.888 45.4128 159.581 45.0549 159.153 44.8561ZM159.033 49.8931C158.926 50.251 158.753 50.5029 158.512 50.6354C158.272 50.768 157.924 50.8342 157.47 50.8342C157.016 50.8342 156.669 50.768 156.428 50.6354C156.188 50.5029 156.028 50.2643 155.921 49.9064C155.814 49.5485 155.774 49.005 155.774 48.276C155.774 47.5204 155.827 46.9637 155.947 46.6058C156.054 46.2346 156.228 45.996 156.468 45.8635C156.709 45.7309 157.043 45.6779 157.484 45.6779C157.938 45.6779 158.285 45.7442 158.512 45.8635C158.753 45.9828 158.926 46.2346 159.033 46.6058C159.14 46.9769 159.193 47.5337 159.193 48.2892C159.193 48.9917 159.14 49.5352 159.033 49.8931ZM166.927 50.5956C166.794 50.4896 166.74 50.304 166.74 50.0389V44.6307H165.525V50.2245C165.525 50.7945 165.658 51.2054 165.939 51.4572C166.206 51.7091 166.62 51.8284 167.154 51.8284H169.866V50.7282H167.448C167.234 50.7547 167.061 50.7017 166.927 50.5956ZM176.625 44.644L174.26 51.8549H175.516L176.064 50.145H178.695L179.256 51.8549H180.525L178.161 44.644H176.625ZM176.358 49.058L177.386 45.6779L178.415 49.058H176.358ZM189.127 48.1036C189.434 48.0241 189.688 47.8518 189.875 47.5734C190.062 47.2951 190.156 46.9504 190.156 46.5262C190.156 45.2802 189.488 44.644 188.152 44.644H185.374V51.8549H188.272C188.98 51.8549 189.515 51.6958 189.862 51.391C190.223 51.0861 190.396 50.5691 190.396 49.8533C190.396 49.3496 190.276 48.952 190.022 48.6604C189.768 48.3687 189.474 48.1832 189.127 48.1036ZM186.576 45.7309H188.125C188.7 45.7309 188.98 46.0491 188.98 46.6853C188.98 46.9902 188.9 47.242 188.753 47.4144C188.606 47.5999 188.406 47.6927 188.152 47.6927H186.563V45.7309H186.576ZM188.967 50.5029C188.793 50.6752 188.553 50.768 188.219 50.768H186.576V48.6339H188.219C188.513 48.6339 188.753 48.7266 188.94 48.9122C189.127 49.0978 189.221 49.3496 189.221 49.6678C189.221 50.0522 189.141 50.3305 188.967 50.5029ZM199.506 48.1699C199.185 47.8385 198.718 47.6795 198.117 47.6795H197.355C197.021 47.6795 196.781 47.6132 196.621 47.4806C196.46 47.3481 196.38 47.136 196.38 46.8444V46.6058C196.38 46.2479 196.487 45.996 196.687 45.8635C196.888 45.7309 197.208 45.6646 197.622 45.6646C198.077 45.6646 198.758 45.6912 199.639 45.7574V44.803C199.346 44.75 198.998 44.697 198.598 44.644C198.197 44.6042 197.823 44.5777 197.476 44.5777C196.728 44.5777 196.167 44.7368 195.779 45.0549C195.392 45.373 195.205 45.8767 195.205 46.5528V46.9239C195.205 47.5999 195.378 48.0771 195.726 48.382C196.073 48.6869 196.581 48.8327 197.275 48.8327H197.956C198.237 48.8327 198.451 48.899 198.598 49.0315C198.745 49.1641 198.811 49.3629 198.811 49.6147V49.9594C198.811 50.2908 198.704 50.5161 198.477 50.6354C198.25 50.7547 197.916 50.821 197.476 50.821C196.607 50.821 195.873 50.7945 195.285 50.7414V51.6958C195.565 51.7621 195.926 51.8151 196.354 51.8549C196.781 51.8947 197.182 51.9079 197.529 51.9079C198.317 51.9079 198.918 51.7621 199.346 51.4838C199.76 51.2054 199.973 50.6884 199.973 49.9329V49.4689C199.987 48.9387 199.826 48.5013 199.506 48.1699Z" fill="#0079C1"/>
<path d="M21.1714 6.44214L4.04729 16.3174C1.5361 17.749 0 20.4 0 23.2764V39.4612C0 42.3377 1.54946 44.9887 4.04729 46.4203L21.1714 56.5341C21.1714 47.9977 21.1714 44.2067 21.1714 44.2067L10.4722 37.6055V24.7345L21.1714 18.4913C21.1714 18.4913 21.1714 15.0846 21.1714 6.44214Z" fill="#012169"/>
<path d="M27.8636 35.8425L10.459 25.5166C10.459 34.2784 10.459 37.6055 10.459 37.6055L21.1582 44.2067C21.1582 44.2067 21.1582 52.9817 21.1582 56.5341C24.1102 58.4562 28.6651 61.0012 31.951 62.963L31.9777 42.9872C31.9911 40.0445 30.4149 37.3139 27.8636 35.8425Z" fill="#0079C1"/>
<path d="M53.6167 16.5428L36.4258 6.42896C36.4258 14.9654 36.4258 18.7564 36.4258 18.7564L47.1651 25.3576V38.2286L36.4391 44.4718C36.4391 44.4718 36.4391 47.8917 36.4391 56.521L53.6301 46.6457C56.1413 45.2141 57.6907 42.5631 57.6907 39.6867V23.5019C57.6774 20.6387 56.1279 17.9876 53.6167 16.5428Z" fill="#012169"/>
<path d="M47.178 25.3708L36.4386 18.7563C36.4386 18.7563 36.4386 9.98129 36.4386 6.42885C33.4733 4.50682 28.9051 1.96179 25.6058 0L25.5791 19.9758C25.5791 22.9185 27.1553 25.6491 29.7332 27.1205L47.1913 37.4464C47.178 28.6846 47.178 25.3708 47.178 25.3708Z" fill="#0079C1"/>
</svg>
